# xmcd
#
# Track frame offsets:
#	150
#	12325
#	32337
#	52960
#	71117
#	88600
#	102560
#	125410
#	144335
#	162867
#	178810
#	194697
#	212395
#
# Disc length: 3090 seconds
#
# Revision: 0
# Processed by: cddbd v1.5PL3 Copyright (c) Steve Scherf et al.
# Submitted via: dBpowerAMP V4.0
#
DISCID=b20c100d
DTITLE=4PM - Nows The Time
DYEAR=1994
DGENRE=R&B
TTITLE0=Sukiyaki
TTITLE1=Lay Down Your Love
TTITLE2=Forever In My Heart
TTITLE3=Gift Of Perfect Love
TTITLE4=Yes
TTITLE5=In This Life
TTITLE6=Naturally
TTITLE7=For What More
TTITLE8=Father And Child
TTITLE9=Time (Clock Of The Heart)
TTITLE10=Then Came You
TTITLE11=Glad You Said The Words
TTITLE12=Years From Here
EXTD=4PM - For Positive Music
EXTT0=
EXTT1=
EXTT2=
EXTT3=
EXTT4=
EXTT5=
EXTT6=
EXTT7=
EXTT8=
EXTT9=
EXTT10=
EXTT11=
EXTT12=
PLAYORDER=
